<svg width="580" height="4" viewBox="0 0 580 4" fill="none" xmlns="http://www.w3.org/2000/svg">
<mask id="mask0_2189_966" style="mask-type:alpha" maskUnits="userSpaceOnUse" x="-2" y="0" width="583" height="4">
<path fill-rule="evenodd" clip-rule="evenodd" d="M-2 0H13.7297V4H-2V0ZM21.5947 0H37.3245V4H21.5947V0ZM60.9192 0H45.1895V4H60.9192V0ZM68.7842 0H84.5139V4H68.7842V0ZM108.108 0H92.3779V4H108.108V0ZM115.973 0H131.702V4H115.973V0ZM155.297 0H139.567V4H155.297V0ZM163.162 0H178.892V4H163.162V0ZM202.487 0H186.757V4H202.487V0ZM210.352 0H226.081V4H210.352V0ZM249.676 0H233.946V4H249.676V0ZM257.541 0H273.271V4H257.541V0ZM296.865 0H281.135V4H296.865V0ZM304.729 0H320.459V4H304.729V0ZM344.054 0H328.324V4H344.054V0ZM351.919 0H367.649V4H351.919V0ZM391.243 0H375.514V4H391.243V0ZM399.108 0H414.838V4H399.108V0ZM438.433 0H422.703V4H438.433V0ZM446.297 0H462.027V4H446.297V0ZM485.621 0H469.892V4H485.621V0ZM493.486 0H509.216V4H493.486V0ZM532.811 0H517.081V4H532.811V0ZM540.676 0H556.406V4H540.676V0ZM580 0H564.271V4H580V0Z" fill="#D9D9D9"/>
</mask>
<g mask="url(#mask0_2189_966)">
<rect x="-2" width="582" height="4" fill="#F2F5FA"/>
</g>
</svg>
