<?xml version="1.0" encoding="utf-8"?>
<!-- Generator: Adobe Illustrator 27.4.0, SVG Export Plug-In . SVG Version: 6.00 Build 0)  -->
<svg version="1.1" id="Layer_1" xmlns="http://www.w3.org/2000/svg" xmlns:xlink="http://www.w3.org/1999/xlink" x="0px" y="0px"
	 viewBox="0 0 255 31" style="enable-background:new 0 0 255 31;" xml:space="preserve">
<style type="text/css">
	.st0{fill-rule:evenodd;clip-rule:evenodd;fill:#FFFFFF;}
</style>
<g id="Design">
	<g id="GCI-Plus-Hub-Page-_DT_">
		<g id="Group-5">
			<g id="Mobile_icon_white">
				<g id="Group-3">
					<g>
						<path id="Fill-1" class="st0" d="M17.8,28c0,0.7-0.5,1.2-1.2,1.2h-13c-0.7,0-1.2-0.5-1.2-1.2V3c0-0.7,0.5-1.2,1.2-1.2h1.7
							l0.6,1c0.6,0.9,1.5,1.4,2.6,1.4h3c1.1,0,2-0.5,2.6-1.4l0.6-1h1.7c0.7,0,1.2,0.5,1.2,1.2V28z M13.3,1.8l-0.2,0.3
							c-0.3,0.5-0.9,0.8-1.5,0.8h-3c-0.6,0-1.2-0.3-1.5-0.8L6.9,1.8H13.3z M16.6,0.4h-13C2.2,0.4,1,1.6,1,3v25
							c0,1.4,1.2,2.6,2.6,2.6h13c1.4,0,2.6-1.2,2.6-2.6V3C19.1,1.6,18,0.4,16.6,0.4C16.6,0.4,16.6,0.4,16.6,0.4z"/>
					</g>
				</g>
				<path id="Fill-4" class="st0" d="M12.4,26.2H7.8c-0.4,0-0.7,0.3-0.7,0.7s0.3,0.7,0.7,0.7h4.6c0.4,0,0.7-0.3,0.7-0.7
					S12.8,26.2,12.4,26.2"/>
			</g>
		</g>
	</g>
</g>
</svg>
